<?xml version="1.0" encoding="UTF-8"?>
<svg version="1.1" viewBox="0 0 1280 1276" width="1280" height="1280" xmlns="http://www.w3.org/2000/svg">
<path transform="translate(625)" d="m0 0h30l26 3 26 6 23 8 20 9 19 11 17 12 13 11 13 12 11 12 13 17 11 17 14 27 19 38 10 19 89 178 10 19 89 178 10 19 89 178 10 19 73 146 9 24 6 22 4 25 1 11v30l-3 26-5 22-5 17-10 24-9 17-11 17-10 13-12 14-14 14-11 9-13 10-18 11-19 10-26 10-23 6-24 4-11 1h-832l-25-3-22-5-17-5-26-11-20-11-12-8-13-10-14-12-14-14-9-11-10-13-12-20-9-17-10-26-6-23-4-24-1-12v-30l3-26 6-26 9-25 12-25 68-136 10-19 91-182 10-19 89-178 10-19 91-182 10-19 21-42 13-21 11-14 9-10 7-8 15-14 13-10 18-12 20-11 25-10 20-6 25-5z" fill="#FEEB00"/>
<path transform="translate(625)" d="m0 0h30l26 3 26 6 23 8 20 9 19 11 17 12 13 11 13 12 11 12 13 17 11 17 14 27 19 38 10 19 89 178 10 19 89 178 10 19 89 178 10 19 73 146 9 24 6 22 4 25 1 11v30l-3 26-5 22-5 17-10 24-9 17-11 17-10 13-12 14-14 14-11 9-13 10-18 11-19 10-26 10-23 6-24 4-11 1h-832l-25-3-22-5-17-5-26-11-20-11-12-8-13-10-14-12-14-14-9-11-10-13-12-20-9-17-10-26-6-23-4-24-1-12v-30l3-26 6-26 9-25 12-25 68-136 10-19 91-182 10-19 89-178 10-19 91-182 10-19 21-42 13-21 11-14 9-10 7-8 15-14 13-10 18-12 20-11 25-10 20-6 25-5zm2 118-17 3-18 6-17 9-11 8-10 9-8 8-11 16-12 23-52 104-10 19-90 180-10 19-89 178-10 19-89 178-10 19-35 70-6 17-4 20v27l4 20 6 16 7 14 8 11 11 13 11 9 11 8 16 8 18 6 16 3h828l20-4 19-7 14-8 13-10 8-7 9-11 8-11 8-16 6-18 3-16v-27l-4-20-6-17-44-88-10-19-90-180-10-19-88-176-10-19-90-180-10-19-53-106-8-12-8-10-12-12-14-10-17-9-18-6-17-3z"/>
<path transform="translate(635,286)" d="m0 0h10l14 3 16 8 8 7 8 11 5 11 3 13v491l-3 13-7 14-11 12-11 7-13 5-6 1h-16l-12-3-14-7-12-11-8-13-4-12-1-6v-491l2-10 5-12 6-9 5-6 11-8 11-5z"/>
<path transform="translate(630,932)" d="m0 0h20l13 4 11 6 10 9 7 9 5 11 3 13v19l-3 13-6 12-8 10-10 8-12 6-13 3h-14l-16-4-12-7-10-9-9-14-4-12-1-6v-19l4-16 6-11 9-10 9-7 10-5z"/>
</svg>
