<?xml version="1.0" encoding="UTF-8"?>
<svg version="1.1" viewBox="0 0 900 848" width="1280" height="1280" xmlns="http://www.w3.org/2000/svg">
<path transform="translate(418,10)" d="m0 0h24l18 3 20 6 23 11 16 10 5 4 15 2 12 5 9 7 5 4 9 12 6 12 5 16 3 16 1 9v51l4 12-1 9-4 10-5 6-2 26-5 17-9 24-2 8v15l1 11v14l-4 13-11 23-1 5v13l1 19-2 10-7 14-9 11-11 12-6 10-5 11-4 16h-2l6 12 2 3v3l-7 2h-5l5 11 3 16-1 17-6 42-8 45-4 22v21l8 26 13 38 8 31 5 25v6h2v2l-4 1 2 17 5 13 2 5v3h-28l1-16-6-16-3-1-3-14-12-31-15-30-10-25-5-19-5-28-4-32-2-31v-42h-2l1 43-1 49-2 31-5 38-6 41-2 19-1 35-2 2v16l2 11h-31l2-15 1-2h3l-1-10-7-3-1-2v-161l-11-53-7-41v-41l1-11h2l1-6 4-9 10-33-1-4-8-9-7-14-7-30-8-18-7-11-8-11-4-10-1-5-2-32-5-17-8-17-13-23-8-16-6-16-4-21-1-9v-30l3-23 4-17 6-16 14-26 10-16 14-17 9-10 11-9 10-7 16-9 15-5z" fill="#363637"/>
<path transform="translate(506,82)" d="m0 0h1l1 24 3 15 5 14 8 16 5 9 5 1 3 3-1 6h-2l6 9 8 19 3 9-1 10-4 14-7 14-9 12-11 12-15 12-12 7-13 5-18 4-7 1h-9l2 16 4 11 9 5 6 2v3l6 1 8 4 8 8 3 7 1 5v22l-4 22-6 21-3 9-3-3-12-24v-2l-6-1v-7h2l-2-4-2 7-1 9h-1l-1-12 2-7-1-4-1 1-1 9-5-2-3-3-1-4 1-3-8 2-6-2-5 1-4-2-1 2-3 5h2l1-2 4 4-1 5-5 1-3-4v-2l-2-4-3-1v-3l-4-1-1 2-2-1 4 14-8 27h-2l-8-20-4-16-2-15v-14l2-10 4-8 7-6 9-2 1-3h14l3-9 1-4 1-21-10-1-22-6-15-6-17-9-10-8-6-5-7-10-5-11-4-15-2-10v-25l2-4-4-7-4-5-1-8-1-4 8-3h6l5-1h27l2 1h10l1 4h-8l6 1 10 1-2-2-4 1-1-5-12-1-20-1 2-2 24-8 49-15 28-10 21-9 11-7 11-9 9-10z" fill="#FAD5A9"/>
<path transform="translate(498,507)" d="m0 0h3l5 11 3 16-1 17-6 42-8 45-4 22v21l8 26 13 38 8 31 5 25v6h2v2l-4 1 2 17 5 13 2 5v3h-28l1-16-6-16-3-1-3-14-12-31-15-30-10-25-5-19-5-28-4-32-2-31v-42h-2l1 43-1 49-2 31-5 38-6 41-2 19-1 35-2 2v16l2 11h-31l2-15 1-2h3l-1-10-7-3-1-2v-161l-11-53-7-41v-41l1-11 14 1 21 2h53l28-3z" fill="#020201"/>
<path transform="translate(506,82)" d="m0 0h1l1 24 3 15 5 14 8 16 5 9 5 1 3 3-1 6h-2v7l-3 2-3 10-2 9-5 17-6 8-5 4-12 4-8 1h-10l-14-3-8-4-6-5-9-14-9-20-2-1h-7l-3 3-9 20-8 12-9 7-10 4-5 1h-18l-15-4-8-6-6-12-4-12-2-1v-3h2l-2-10-7-8-1-9-1-4 8-3h6l5-1h27l2 1h10l1 4h-8l6 1 10 1-2-2-4 1-1-5-12-1-20-1 2-2 24-8 49-15 28-10 21-9 11-7 11-9 9-10z" fill="#1E1C1A"/>
<path transform="translate(448,326)" d="m0 0 7 1 5 3 6 2v3l6 1 8 4 8 8 3 7 1 5v22l-4 22-6 21-3 9-3-3-12-24v-2l-6-1v-7h2l-2-4-2 7-1 9h-1l-1-12 2-7-1-4-1 1-1 9-5-2-3-3-1-4 1-3-8 2-6-2-5 1-4-2-1 2-3 5h2l1-2 4 4-1 5-5 1-3-4v-2l-2-4-3-1v-3l-4-1-1 2-2-1 4 14-8 27h-2l-8-20-4-16-2-15v-14l2-10 4-8 7-6 9-2 1-3h17l1 1 1 17 3 7 2 1h10l7-2 2-10z" fill="#4F4F50"/>
<path transform="translate(485,449)" d="m0 0 2 1 11 23 6 11 2-3 1 1v5h-2l6 12 2 3v3l-7 2-37 5-11 1h-53l-28-3-5-1 1-6 4-9 7-21 3-3h2v3l4-1 1-2v-3-3l1 2 5-2 3-1h2l5-5 3-1v-2l11-1 4 2v2l3 1 2-1-1 5-2 7h4v-3l-1-4 3-5 4-2h7v4l-5 5-1 2h2v5l2 3v4l5-2-1-3-3-1 1-2h1l1-3 1-4-2-4 3-3h5l2 3h-2v2l8 1h4l2 1-4-5 1-4 4 1 6 4-3-4 5-2 6-1z" fill="#262626"/>
<path transform="translate(506,82)" d="m0 0h1l1 24 3 15 5 14 12 24h-39l-24 3-22 5-9 2h-11l-30-7-26-3-20-1 2-2 24-8 49-15 28-10 21-9 11-7 11-9 9-10z" fill="#FAD5A9"/>
<path transform="translate(362,165)" d="m0 0h14l16 3 13 4 4 4 2 5-1 12-4 14-7 11-5 4-8 3-7 1h-13l-10-2-9-4-4-5-3-8-1-10h2v-3l-3-1v-8l6-1v-3l-6-2 1-7 2-1 5 3 4 1-3-5v-3l3-1z" fill="#FAD5A9"/>
<path transform="translate(481,165)" d="m0 0h13l13 1 2 2-3 3-1 3 7-3 4-1 3 5-1 3-7 2v3h8v8l-5 2v3l4 2-3 12-3 6-5 5-13 4h-20l-12-4-5-5-4-5-5-13-2-9v-9l4-6 6-4 17-4z" fill="#FAD5A9"/>
<path transform="translate(467,335)" d="m0 0 10 3 10 9 4 8 1 5v22l-4 22-6 21-3 9-3-3-13-26 1-6 10-27 3-5-6-14-3-9z" fill="#FAD5A9"/>
<path transform="translate(486,170)" d="m0 0 12 2 8 6 5 9 1 3v13l-4 2-4-15-2-2 1 9-3 7-5 5-7 3-10-1-7-5-3-5-1-9 3-8-4 4-4 7-1-4 6-11 8-7 5-2z" fill="#A56710"/>
<path transform="translate(569,169)" d="m0 0h10l5 3 4 2 5 16-1 9-4 10-6 7-13 9-8 4h-2l3-28v-28l4-3z" fill="#FAD5AA"/>
<path transform="translate(405,334)" d="m0 0h1v17l-4 13-6 12 5 5 6 17-8 27h-2l-8-20-4-16-2-15v-14l2-10 4-8 7-6z" fill="#FAD5A9"/>
<path transform="translate(366,168)" d="m0 0 9 1 6 3 7 7 4 8v4h-2l1 2v6l-5 7-5 3-10 1-7-3-5-5-3-7 1-9 5-7 5-3-8 2-5 5-4 7-2 14-4-3v-12l4-9 7-8 6-3z" fill="#A5660F"/>
<path transform="translate(414,256)" d="m0 0h13l19 4 9 1-1 5-9 11-11 7-4 2h-10l-7-4-1-6 2-5-6-5-3-6z" fill="#393837"/>
<path transform="translate(334,159)" d="m0 0h31l2 1h10l1 4h-8l-8 2-12 1-3 2 3 3v3l-6-1-4-2-2 7 6 2v3l-6 1 1 8 2 1v3h-2l1 4v9l-3-3-3-1-1-9h-5v-3h2l-2-10-7-8-1-9-1-4 8-3h6z" fill="#1B1B1A"/>
<path transform="translate(517,810)" d="m0 0h4l4 21 6 14v3h-28l1-16-6-17 6-2z" fill="#32291E"/>
<path transform="translate(526,190)" d="m0 0h1v6l-7 21-8 9-11 4-11 2h-10l-14-3-8-4-6-5-9-14v-2h3l2-4-4 2 4-8 3 10 4 8 3 4v2l4 2 12 4h20l13-4 3-1 2-4 4-11 2-7 5-1v-3h2z" fill="#353330"/>
<path transform="translate(396,821)" d="m0 0 14 2 8-2 1 16 2 11h-31l2-15 1-2h3z" fill="#252525"/>
<path transform="translate(508,159)" d="m0 0h12l13 1 4 4-1 6h-2v7l-3 2-3 10-2 5-3-1v3l-7 1-2-1v-3l4-2 1-8-6 1-2-1v-3l7-3-2-6-5 2-6 1 1-4 3-3-2-4z" fill="#242424"/>
<path transform="translate(332,195)" d="m0 0 3 4v3l-1 4 4 1h3l4 10 5 4 9 3 7 1h13l10-2 8-4 7-10 2-5 6 6-8 11-8 6-10 4-5 1h-18l-15-4-8-6-6-12-4-13h2z" fill="#36312C"/>
<path transform="translate(489,158)" d="m0 0h30v1l-11 1v6l3 1-17-1h-13l-17 3-10 3-5 4-2 4v14l-2-4-1-10-4-5 1-3-2-5 20-5 19-3z" fill="#262626"/>
<path transform="translate(365,175)" d="m0 0h5l-9 6-3 5-1 9 3 7 5 5 6 2 10-1 6-4 4-6 2 1 2 14h-20l-17-3-11-5 2-15 6-10 6-4z" fill="#FDF9F5"/>
<path transform="translate(470,182)" d="m0 0 2 1-3 5-1 9 3 7 5 5 6 2 10-1 6-4 3-5 1-9-1-6 4 4 3 11-1 4-9 6-6 2h-6v2h-27v-9l2-11 7-11z" fill="#FDFAF7"/>
<path transform="translate(486,170)" d="m0 0 12 2 8 6 5 9 1 3v13l-4 2-4-15-7-9-9-3h-7l-7 2-6 5-6 10-1-4 6-11 8-7 5-2z" fill="#16110C"/>
<path transform="translate(366,168)" d="m0 0 9 1 6 3 7 7 4 8v4h-2l-7-10-10-5h-8l-7 3-5 5-4 10-1 10-4-3v-12l4-9 7-8 6-3z" fill="#13110D"/>
<path transform="translate(414,256)" d="m0 0h13l19 4 9 1-1 5-5 1-5-1h-6l-3 4-5-1-2-3-3-1-1 2-5-1-7 1h-3l-4-7z" fill="#514F4D"/>
<path transform="translate(380,161)" d="m0 0h13l26 6-3 3 5 4 2 5-3 4-7 2-2 2-2-9-2-4-10-4-9-2v-2h-2l-2-2-4 1z" fill="#272624"/>
<path transform="translate(334,170)" d="m0 0 4 1v2l-4 3v2l8 2 2 1v3l-6 1 1 8 2 1v3h-2l1 4v9l-3-3-3-1-1-9h-5v-3h2l-2-10-1-3h2l-3-5v-2l4-3z" fill="#1E1E1D"/>
<path transform="translate(517,810)" d="m0 0h4l2 10v7h-17l-1 5-2-3-5-14 6-2z" fill="#FAD7AD"/>
<path transform="translate(417,168)" d="m0 0 15 2 3 2-2 3-6 3-3 4v2l-6 1-1 5h2l-1 7-6 12-5-2 1-9 2-11h2l1-3 8-3 1-3-3-5-4-4z" fill="#161616"/>
<path transform="translate(508,159)" d="m0 0h12l13 1 4 4-2 5-9-1h-3l-2 4v-4l-2 2-7 2-3 2h-4l1-4 3-3-2-4z" fill="#1B1B1B"/>
<path transform="translate(334,159)" d="m0 0h14v2l-5 1-1 4-4-1v-2l-4-1-5 3-4 5 5-5 6 2 5 2-3 10-4-1-1-3 2-2h3v-2l-8 1-4 2 3 4v3l-4-1-4-5-1-8-1-4 8-3h6z" fill="#1A1A1A"/>
<path transform="translate(332,195)" d="m0 0 3 4v3l-1 4 4 1h3l4 10 5 4 6 2 2 3h6l2 2h-2v2l-13-1-8-4-6-8-4-10-3-10h2z" fill="#1D1D1D"/>
<path transform="translate(398,454)" d="m0 0 7 1-2 8-3 2-5 1 1 4-3 2h-3l-1 2-1-2 1-2h-2l-1 3h-2l3-12h2l1-4z" fill="#272728"/>
<path transform="translate(511,833)" d="m0 0h9l5 12v3h-16l-1-4 1-6v-4z" fill="#353536"/>
<path transform="translate(526,190)" d="m0 0h1v6l-7 21-3 4-5 2-1-5h2l1-8 3-12 2-2h4v-3h2z" fill="#302E2C"/>
<path transform="translate(397,836)" d="m0 0h16l1 6-1 2h2v4h-19v-7z" fill="#363637"/>
<path transform="translate(396,821)" d="m0 0 14 2 8-2v12l-1-2h-21z" fill="#FAD5A9"/>
<path transform="translate(462,163)" d="m0 0m-6 1 3 2 2-2v4l-5 3-6 4-3 5v14l-2-4-1-10-4-5 1-3-2-5 7-2h5l4 1z" fill="#332F2B"/>
<path transform="translate(373,25)" d="m0 0v3l-8 6-11 9-13 13-13 17-6 9-3-1 8-12 13-16 9-10 11-9 10-7z" fill="#4C4A48"/>
<path transform="translate(380,161)" d="m0 0h13l17 4v1h-5l2 4v3l-10-3-9-2v-2h-2l-2-2-4 1z" fill="#2A2824"/>
<path transform="translate(520,177)" d="m0 0 3 1-1 3-1 1h4l2-2v10l-2 4-2-1v3l-7 1-2-1v-3l4-2 1-8-6 1-2-1v-3z" fill="#151515"/>
<path transform="translate(447,194)" d="m0 0 2 4 5 13 4 5v2h2l1 4-5 1-5-5-6-9-2-5h3l2-4-4 2 2-4z" fill="#2A2825"/>
<path transform="translate(413,277)" d="m0 0 5 1 3 1v-2l3 1 1 1 2-2h13v2l-7 2v2h-2l-1 3h-10l-7-4z" fill="#2D2B29"/>
<path transform="translate(410,187)" d="m0 0 1 4h6l2 1-1 5-6 12-5-2 1-9z" fill="#282521"/>
<path transform="translate(462,384)" d="m0 0h6l-2 12-3 9-5-1v-7h2l-2-4 1-6 3-1z" fill="#39393A"/>
<path transform="translate(393,831)" d="m0 0h24l4 14v3l-4-1-3-12-19-1v3l-3 1z" fill="#201E1C"/>
<path transform="translate(512,215)" d="m0 0 1 3v4h3l-6 5-12 4-8 1h-10v-1l20-2v-2l-2-2v-2l10-4h2z" fill="#3D362D"/>
<path transform="translate(509,829)" d="m0 0h9l4 3 5 11 1 5h-3l-4-11v-2l-2-1h-10l1 7-1 7h-3l1-16z" fill="#252525"/>
<path transform="translate(501,186)" d="m0 0 4 4 3 11-1 4-9 6-6 2h-4v-2l7-3 5-5 2-6z" fill="#FDF6EF"/>
<path transform="translate(586,120)" d="m0 0h2l1 7v38l-1 9-2 1-1-5 1-17z" fill="#453F36"/>
<path transform="translate(470,160)" d="m0 0h5v3 2h6v1l-17 3-4-1v-1l-3-2-2 2-4-1-1-2zm-8 3 1 2z" fill="#242425"/>
<path transform="translate(495,496)" d="m0 0h8l5 2 1-2 3 4-1 2-8 1-2-2-5 1-4 2-4-1-1-2 4-4z" fill="#3A3837"/>
<path transform="translate(406,398)" d="m0 0 1 3 9 2 8 4 1 2-5-2-7-2 6 5-1 3-2-2h-5l-1 3-2-3-2-4h-2z" fill="#4D4D4E"/>
<path transform="translate(494,224)" d="m0 0h5l2 3-1 2-12 2h-10l-2-2 2-2z" fill="#252422"/>
<path transform="translate(483,189)" d="m0 0 6 1 2 2v5l-4 3-6-1-2-2v-5z" fill="#262626"/>
<path transform="translate(372,187)" d="m0 0 6 1 2 2v5l-4 3-6-1-2-2v-5z" fill="#272626"/>
<path transform="translate(431,507)" d="m0 0h15l4 2-2 4h-17z" fill="#191919"/>
<path transform="translate(518,161)" d="m0 0h5v4l-4 5-7 2-3 2h-4l1-4 3-3 6-2z" fill="#181818"/>
<path transform="translate(358,159)" d="m0 0h7l2 1h10l1 4h-8l-8 2h-12l3-4h5l1 2 2-1 2 1-1-2-4-1z" fill="#1D1D1D"/>
<path transform="translate(516,204)" d="m0 0 1 3h2l3 3-2 7-3 4-5 2-1-5h2l1-8z" fill="#383530"/>
<path transform="translate(489,158)" d="m0 0h6l-4 2-2 5h-14l-3-4 6-2z" fill="#31302F"/>
<path transform="translate(550,360)" d="m0 0 2 1-2 10v13l1 19-2 10-2 5h-2l1-7 2-5v-42z" fill="#090909"/>
<path transform="translate(418,10)" d="m0 0h24v2h7v1h-28l-14 2-6 1 1-2 9-1v-2z" fill="#58544F"/>
<path transform="translate(581,217)" d="m0 0h1l-1 24-4 14-2 1 1-8 2-10 1-18z" fill="#1C1C1C"/>
<path transform="translate(406,204)" d="m0 0 6 6-7 10h-6l2-3 1-5z" fill="#2C2926"/>
<path transform="translate(514,837)" d="m0 0h3l5 10v1h-10v-9z" fill="#4E4F51"/>
<path transform="translate(420,168)" d="m0 0h19l-1 5 1 4h-3l-1 4-5-5 3-4-1-2h-10z" fill="#312E29"/>
<path transform="translate(368,158)" d="m0 0 19 2v1h-7v4l5-2 1 3 2 1-24-2v-1l13-1v-3l-13 1 1-2z" fill="#3C362D"/>
<path transform="translate(356,224)" d="m0 0 22 2v1h-10l-1 4h14v1h-18l-9-2v-1l10 1v-3h-6l-2 1z" fill="#484239"/>
<path transform="translate(332,195)" d="m0 0 3 4v3l-1 4 4 1h3l3 10-3-1-3-3h-3l-5-16h2z" fill="#33302D"/>
<path transform="translate(474,196)" d="m0 0h5l2 2v5l-2 2h-5l-2-2v-5z" fill="#FDF6EF"/>
<path transform="translate(363,194)" d="m0 0h5l2 2v5l-2 2h-5l-2-2v-5z" fill="#FDF6EF"/>
<path transform="translate(401,841)" d="m0 0h8l2 7h-12z" fill="#4E4F51"/>
<path transform="translate(421,170)" d="m0 0h11l3 2-2 3-9 4-1-6h-2z" fill="#1E1E1E"/>
<path transform="translate(387,461)" d="m0 0 1 4 3 1v-3l3 1 2 6-3 2h-3l-1 2-1-2 1-2h-2l-1 3h-2z" fill="#423F3D"/>
<path transform="translate(527,175)" d="m0 0 4 1 2 2-2 1-3 10-2-3v-4l-5 1v-3z" fill="#292929"/>
<path transform="translate(441,179)" d="m0 0 4 2 1 14-2-3-3 1-1-3-2-7 2-1z" fill="#232323"/>
<path transform="translate(428,176)" d="m0 0 2 1-1 5 3 2-9 2-3 6-1-2h-2v-5l3-1h4l-1-4h2z" fill="#302F2C"/>
<path transform="translate(332,167)" d="m0 0h5l4 2-3 10-4-1-1-3 2-2h3v-2l-8 1-3 2 2-6z" fill="#29292A"/>
<path transform="translate(426,462)" d="m0 0 1 4h-2l3 6-1 5-4 1-2-1v-7h2l-1-4h2v-3z" fill="#353536"/>
<path transform="translate(316,89)" d="m0 0v3l-8 15-5 11-1-3 3-9 9-16z" fill="#4E4D4B"/>
<path transform="translate(466,390)" d="m0 0 1 3-4 12-5-1v-7h2l1-3h4z" fill="#4F4F4F"/>
<path transform="translate(498,158)" d="m0 0h21v1l-11 1v6l3 1-17-1v-1h12l-4-4z" fill="#4B4134"/>
<path transform="translate(573,75)" d="m0 0 3 3 4 8 5 16v5l-2-1-5-18-5-10z" fill="#252525"/>
<path transform="translate(378,226)" d="m0 0 5 2-1 3h-15l1-4z" fill="#1F1F1F"/>
<path transform="translate(462,163)" d="m0 0m-6 1 3 2 2-2v4l-5 3h-5v-2l-3 1-1-4 4-1 4 1z" fill="#1C1C1C"/>
<path transform="translate(404,165)" d="m0 0 15 2-4 2v2l-8 2-3-6z" fill="#22201E"/>
<path transform="translate(333,62)" d="m0 0h2l-2 4-11 16-3-1 8-12z" fill="#474646"/>
<path transform="translate(447,194)" d="m0 0 2 4 4 10v2h-2l-2-2-4 1-2-5h3l2-4-4 2 2-4z" fill="#3D372E"/>
<path transform="translate(424,442)" d="m0 0h23l2 2-10 1h-18l-1-2z" fill="#262626"/>
<path transform="translate(419,388)" d="m0 0 4 2 1 3-2 4-4 1-3-4 1-5 3 1z" fill="#4D4E50"/>
<path transform="translate(336,179)" d="m0 0 6 1 2 1v3h-7v6l-2-1-1-6z" fill="#12110F"/>
<path transform="translate(508,159)" d="m0 0h7v5l-1 3-6-1-1-6z" fill="#1A1A1A"/>
<path transform="translate(435,554)" d="m0 0 5 2-1 7h-2v21h-1z" fill="#FAD5A9"/>
<path transform="translate(334,159)" d="m0 0h14v2l-5 1-1 4-4-1v-2l-5-1z" fill="#252526"/>
<path transform="translate(515,212)" d="m0 0h4l-1 8-6 3-1-5h2l1-4z" fill="#1D1D1D"/>
<path transform="translate(406,383)" d="m0 0 4 1v5l-3 2-2 3-2-5v-5z" fill="#424141"/>
<path transform="translate(518,199)" d="m0 0 3 2 2 1v7h-4v-2h-2v-6z" fill="#1C1C1C"/>
<path transform="translate(417,183)" d="m0 0 1 4-1 3h2l-1 3-1-2h-6l1-6z" fill="#1A1A1A"/>
<path transform="translate(394,162)" d="m0 0 9 1 7 2v1h-5l2 4v3l-4-2h2l-5-5-3-1v-2z" fill="#373635"/>
<path transform="translate(460,507)" d="m0 0 4 1 3-1 3 2-1 3h-9l-3-3h3z" fill="#171717"/>
<path transform="translate(336,212)" d="m0 0 5 2v2l3 1 1 3-2 2h-3l-4-7z" fill="#202021"/>
<path transform="translate(526,170)" d="m0 0 6 1-2 4-7 3v-2h-2l2-5z" fill="#181818"/>
<path transform="translate(441,403)" d="m0 0h6l4 5v1h-7l-3-3z" fill="#4E4F51"/>
<path transform="translate(344,217)" d="m0 0 5 4-3 2 1 3 5 1 2 2-6-1-7-5 1-3 2-1z" fill="#3F3A32"/>
<path transform="translate(563,311)" d="m0 0h2l1 5v14l-2 2-1-5z" fill="#54432C"/>
<path transform="translate(509,167)" d="m0 0 5 1v3l-5 3h-4l1-4z" fill="#0E0C0B"/>
<path transform="translate(470,160)" d="m0 0h5v3 2h6v1l-13 1 2-1v-4h-5v-1z" fill="#403A33"/>
<path transform="translate(439,507)" d="m0 0h7l4 2-2 4-5-1z" fill="#171717"/>
<path transform="translate(337,196)" d="m0 0 2 1 1 4v9l-3-3-3-1 1-4h1z" fill="#252525"/>
<path transform="translate(342,168)" d="m0 0 5 1 3 3v3l-6-1-3-2z" fill="#0C0C0C"/>
<path transform="translate(475,160)" d="m0 0h6l4 2v2l-10 1-3-4z" fill="#181819"/>
<path transform="translate(373,25)" d="m0 0v3l-8 6-6 5-2-1 4-5z" fill="#60584F"/>
<path transform="translate(460,469)" d="m0 0 4 2 1 3-2 2-4 1v-2h-2l1-5z" fill="#353536"/>
<path transform="translate(519,183)" d="m0 0 4 3v2l1 4h-2v2l-3 1v-2l-3-1 2-1z" fill="#2C2A28"/>
<path transform="translate(521,166)" d="m0 0v3l1 2v3l-1 2h2l-1 3-4-2-2-7h3z" fill="#312D29"/>
<path transform="translate(550,360)" d="m0 0 2 1-2 10-1 13h-1v-20z" fill="#0A0A0A"/>
<path transform="translate(515,178)" d="m0 0h4l-1 5-5 1-2-1v-3z" fill="#19140D"/>
<path transform="translate(380,161)" d="m0 0h7l5 6-6-1-2-2-4 1z" fill="#171717"/>
<path transform="translate(580,239)" d="m0 0 1 2-4 14-2 1 1-8 2-8z" fill="#1B1B1B"/>
<path transform="translate(379,225)" d="m0 0h6l2 1v3l3 1-8 1-1-3-2-1z" fill="#40392F"/>
<path transform="translate(370,163)" d="m0 0 13 1h3v2l2 1-24-2v-1z" fill="#3D3831"/>
<path transform="translate(426,488)" d="m0 0h2v2l2 1v3h-3l-1 2-3-2 1-5z" fill="#363637"/>
<path transform="translate(410,414)" d="m0 0 8 1 1 3-2 2-5-1z" fill="#4E4F51"/>
<path transform="translate(459,162)" d="m0 0h6l-3 1-2 4-3-2-2 2-4-1-1-2z" fill="#33312F"/>
<path transform="translate(437,492)" d="m0 0h2v2l2 1-1 4-3 1-3-2 1-5z" fill="#363637"/>
<path transform="translate(482,226)" d="m0 0h6l-4 1v4h-6l-2-2 2-2z" fill="#252525"/>
<path transform="translate(500,160)" d="m0 0 5 2 1 3-15-1 2-1 1-2 6 1z" fill="#161616"/>
<path transform="translate(426,457)" d="m0 0 5 2 2-1-1 5h-4l-4-5z" fill="#2B2B2B"/>
<path transform="translate(515,159)" d="m0 0 14 1-1 2h-10l-4 4-1-2h2z" fill="#272727"/>
<path transform="translate(394,15)" d="m0 0h5v2l-13 5-3-1 6-2v-2z" fill="#454647"/>
<path transform="translate(393,837)" d="m0 0h1v11l-4-1 1-8z" fill="#2D2923"/>
<path transform="translate(386,18)" d="m0 0 3 1-6 2v2l-7 4h-2l1-3z" fill="#3D3D3F"/>
<path transform="translate(475,508)" d="m0 0h17v1l-18 2z" fill="#161616"/>
<path transform="translate(485,487)" d="m0 0 7 1h4v2l-3 2h-6z" fill="#363637"/>
<path transform="translate(406,204)" d="m0 0 6 6-4 4-3-5z" fill="#38342E"/>
<path transform="translate(434,507)" d="m0 0 6 1 4 5h-5z" fill="#181818"/>
<path transform="translate(475,469)" d="m0 0 4 2 2 4-5 5-3-1 1-2 3-1v-3l-3-3z" fill="#363637"/>
<path transform="translate(347,221)" d="m0 0 9 2-2 1v2l-9-2z" fill="#292929"/>
<path transform="translate(488,226)" d="m0 0 4 2v2l-8 1v-4z" fill="#161616"/>
<path transform="translate(352,162)" d="m0 0h6l1 2 3 2h-12z" fill="#463926"/>
<path transform="translate(334,170)" d="m0 0 4 1v2l-5 3-3 1 2-6z" fill="#171717"/>
<path transform="translate(332,195)" d="m0 0 3 4v3 8l-2-3-3-10h2z" fill="#393734"/>
<path transform="translate(431,170)" d="m0 0 4 2-2 3-7 3 2-5z" fill="#161616"/>
<path transform="translate(489,160)" d="m0 0h2v4l7-1 6 1v1h-15v-3z" fill="#222"/>
<path transform="translate(358,159)" d="m0 0h7v5l-5 1 1-2 2 1-1-2-4-1z" fill="#252525"/>
<path transform="translate(333,62)" d="m0 0h2l-2 4-5 5-2 1 2-4z" fill="#3F3F40"/>
</svg>
