<?xml version="1.0" encoding="UTF-8"?>
<svg version="1.1" viewBox="0 0 1744 2048" width="1280" height="1280" xmlns="http://www.w3.org/2000/svg">
<path transform="translate(743,94)" d="m0 0h52l26 4 16 4 21 7 17 7 16 9 17 10 9 7 14 11 24 24 11 14 13 19 8 14 5 10 10-3 31-9 32-7 29-4 31-2h22l11 1 1 1h18l36 6 27 7 28 10 20 9 23 13 15 10 12 9 13 11 10 9 11 11 9 11 11 14 10 15 12 21 8 17 9 25 6 22 4 24 2 25v17l-2 26-4 24-6 24-9 26-9 20-13 25-12 19-10 14-4 5 1 4 6 12 1 3v11l-3 8-7 9-10 9-20 13-5 3v11l-3 17-6 14-8 11-11 12-7 7-16 12-16 9-11 5-13 4-11 2h-19l-19-2-8-3-8-6-6-9-3-12-29 9-30 7-30 5-18 2-17 1h-32l-26-2-32-5-28-7-26-9-14-6 9 51 3 26v44l-3 19-8 37v65l6 101 2 46 1 37v42l-2 22-4 17-7 14-11 14-7 7-14 11-13 10-19 13-10 9-5 4 2 6 22 8 14 8 13 11 11 14 11 21 9 27 2 9v12l-3 11-2 4h2l4 13 2 14v33l-3 10-5 8-6 6-3 6-7 4-32 6-26 3h-20l-7-7v-5l-3 3-1 9-4 2-9 1-15 11-14 8-12 5-16 5-36 7-53 7-19 2h-11l-9-3-8-7-7-9-9-17-7-20-3-13-1-9v-12l3-18 8-22 8-17 12-22 9-19 4-11 5-23 4-36 2-38v-146l-3-18-12-39-12-34-15-35-6-13-9 6-8 7-16 12-36 26-22 15-25 17-30 20-44 29-19 13-9 7h-2l-3 14-5 12-8 10-8 6-9 3-13-1-10-3-15-8-11-9-9-8-9-11-7-11-6-12-3-10v-16l5-10 10-8 10-5 12-3 13-2 19-19 7-8 11-12 9-10 7-8 11-12 7-8 13-14 7-8 14-15 30-32 15-15-1-5-5-13-3-13-1-26 6-47 6-49 5-45 4-27 4-21 6-21 13-34 16-39 15-33 11-21 12-19 7-9 12-14 11-10 18-11 19-8 21-6 24-5 34-6 9-4 6-4 1-7-4-2-21-14-18-13-14-11-24-24-10-13-11-18-8-16-6-15-7-25-3-15-2-12-1-13v-29l2-20 5-26 9-27 9-20 7-13 7-11 9-13 12-14 18-18 17-13 10-7 16-9 16-8 10-4 24-8 17-4z" fill="#F1F1F2"/>
<path transform="translate(700,811)" d="m0 0h8l5 2v3l-2 3-1 10v5l3 7v3h2l2 7h2l1 3 5 5 9 11 4 2 1 2 3 1 3 3h2v2l9 3 8 1 16-12 11-10 11-9 15-13 6-4-2 4-10 9-11 9-10 9-11 9-5 4v13l-4 6-14 12-8 5-25 8-4 5-11 8-13 12-5 4 1 5 4 6v11l1 3 6 3 4 6 2 5 6 4 10 7 7 5 8 4 13 8 10 5 7 6 7 3 1 3 3 1 1 3-1 8-6 7-6 9-4 12v9l2 9 6 17 3 11 3 14 3 9 2 26 1 8-1 11v6l-3 5-2 1-3 5-5-1-9-4-2-8-2-29-9-82-5-25-6-16-6-11-9-10-10-6-10-4-16-4-19-2-26-1-5-1-7 8-5 5-4 6-4 8-3 1-2 10 5 5 7 8 1 3v14l-3 15-5 10-4 5-3 6-5 4-4 6-6 4-7 1-5-5-5-10-3-13h-2l-11 9-8 7-9 7-21 16-36 26-22 15-25 17-30 20-44 29-19 13-9 7h-2l-3 14-5 12-8 10-8 6-9 3-13-1-10-3-15-8-11-9-9-8-9-11-7-11-6-12-3-10v-16l5-10 10-8 10-5 12-3 13-2 19-19 7-8 11-12 9-10 7-8 11-12 7-8 13-14 7-8 14-15 15-16 16-15 15-15 4 2 10 14v2l4 2 2 5h2l3 4v2h2l7 9 14 11 5 3 8 1 12 3 5 2 21 3 16 1 14-1 15-4 9-3 8-6 5-4 11-14 6-11 3-11v-9l-2-9-7-12-7-9-5-6-14-14-11-14-9-12v-12l-3-4v-2l12-2 4-1v-2l7-4 10-6 11-6 16-4 13-3 10-5 4-11 2-14 11-9 11-11 4-2 11-23 7-8 11-9 5-4z" fill="#A33737"/>
<path transform="translate(421,1029)" d="m0 0 4 2 10 14v2l4 2 2 5h2l3 4v2h2l7 9 14 11 6 4 17 9 18 6 13 3 1 2-16 12-11 6-48 32-4 2-39 26-29 20-14 10-17 12-12 9-18 14-6 8-1 7 4 6-1 9-5 10-7 6-9 3-14 2-7-1-14-10-11-10-9-11-7-11-6-12-3-10v-16l5-10 10-8 10-5 12-3 13-2 19-19 7-8 11-12 9-10 7-8 11-12 7-8 13-14 7-8 14-15 15-16 16-15z" fill="#B71C1C"/>
<path transform="translate(852,1545)" d="m0 0 15 1 3 2 1 6-4 7-7 7-11 9-14 12-13 10-14 11-16 13-13 11-2 4 5 1-1 4-12 2-15 11-14 8-12 5-16 5-36 7-53 7-19 2h-11l-9-3-5-4 1-4 7-14 12-14 7-8 8-11 8-17 4-7 4-9 7-9h2l2-4 6-5 6-3 6-4 10-5 18-5 10-3 39-5 4-1 16-1 9-2 32-3 10-1z" fill="#868788"/>
<path transform="translate(695,820)" d="m0 0 2 1 2 9 3 8 2-4h2l1 3-1 6 10 16 14 15 9 8 5 5 8 6-1 2-6 1-9 8-5 4h-6l-9-5-11-8-5-2h-2l-4 7 2 11 5 2 3 7 1 4-8 2-2 3h-2v2l-9 7-5 5-3 1v2l-16 14-6 8-12 11-4 4h-2v2h-2v2h-2l-2 4-4 2-2 4-4 5h-2l-2 4-8 11h-2l-1 2-8-11-6-8-5-6-14-14-11-14-9-12v-12l-3-4v-2l12-2 4-1v-2l7-4 10-6 11-6 16-4 13-3 10-5 5-10 2-7 4-1 5-4 4-4 9-1 3 1 1-4 7-2 4-5 6-1 2 3v5l4 1-5-12v-6l5-5h2l1-3 6-5v-9l-2-8z" fill="#9F1919"/>
<path transform="translate(857,575)" d="m0 0 5 1 9 7 2 2 1 11-4 5-2 9-7 4-3 6-3 5 1 5 1 9 2 4h5l2 3-2 5h7l3 6 7-2 1-2 10-2 6-5 7-3h11l12 2 8 4 16 11 5 5 11 9 7 8 2 1v2l4 2 9 11 12 12 5 8 6 5 4 6 9 9 5 6 5 5 7 8 5 5 3 6h11l14 3v-2l9-1-1-1-12-2-15-1-3-2v-2h-2v-3h-2l-6-7v-2l-4-2-5-5-10-12-8-7-3-5v-2h-2l-7-8-6-7-5-5-5-6-5-5-10-11-8-7v-2h-2v-2l-5-2v-2l-4-2-8-6v-2l-4-2-3-2v-2l-9-3-4-4-11-3-9-4-12-6-5-5-4-7-2-15-4-8v-2l-4-2-3-4 2-1v2l4 2 6 4 8 12 9 13 5 7 8 4 5 3 7 3 22 16 4 4 7 6v2l5 2 3 3v2l4 2 6 5v2h2l3 5 8 7 9 10 7 8 2 1 2 5 7 6 7 8 8 9 4 5 6 5 2 4 5 5 6 9 3 1 20 2 10 2 8 3v-2l9-1 8-2-5-2-20-4-9-3-10-1-6-4-4-8-11-12-5-5-1-3-4-2-5-4-7-8-1-3h-2v-2l-3-1-5-6-10-10-6-7-5-5-4-3v-2l-4-2-4-4v-2h-2v-2l-5-2-4-6-2-1v-2l-4-2-9-8v-2l-4-2-6-5-11-9-9-7-5-5-8-5v-2h-2v-2l-4-2-6-5h3l16 8 14 9v2l5 2 9 9 3 2v2l5 2 8 7 12 11v2h2v2l4 2 3 3v2l4 2 8 7 1 3h3l3 4v2l4 2 18 18 7 6 3 4v2l5 2 3 5 2 1v2l3 1v2h2v2h2l4 5 5 3 9 11 3 6 3 2 13 2 11 3 25 5-3 1 1 1 16-5 12-5 9-3 14-6 17-8 14-7 5-3h2l1-2 7-4h2l1-2 5-3h2v-2l9-5 4-4h3v-2l3-1 1-2 7-4 3-3h2v-2l6-4 3-4 4-2 1-2h2l1-2v3l-4 4-8 7-14 12-18 13-18 11-14 8-3 3-2 1-2 4-2 5v8h-4l-1 2-7 1-2-3 1-7 2-3-15 7-1 3 4 10-7 1-6-9-6 4-1 2h2l4 5v3l-6 2 3 6v3l-24 8-22 5h-4v2h-11v2l-17 2-8 1-4 1-31 1-38-1-10-2h-7l-12-4-3-7 3-1h-7l-4-2h-3l-1 2-3-1v-3l-4 1-3-2v-7l7-2 9 2 10 4 4 4-1 6 7-1 7 1-1-4-6-6v-2l70-1-6-10-9-8-7-8-5-5-8-10-9-10-4-5-5-5-9-11-4-4v-2h-2v-2l-4-2-7-8-2-1v-2l-4-2-3-3v-2l-5-2v-2l-4-2-5-4-5-3-6-4-8-3h-7l-15 3-5 2-1 3-5 4-6 9-5 2h-5l-3 1-1 3-5-1-9-4-5-7-3-1-1-6-1-3-7-2-3-9-5 1-1-7-2-2v-8l2-7 2-9 4-3h2l2-5 13-10 6-6 2-7-5-6-2-1v-2z" fill="#5B5B5C"/>
<path transform="translate(864,433)" d="m0 0 19 5 10 1 9 7 9 6 6 9 6 6 3 9 1 7v12l-7 9-5 3-7 6-4 2-3 3-5 2-3 3-5 1-1 2-5 1-1 2-10 5-8 3-9 3h-3l-1 2-6 2h-6l-1 2-9 2-23 8-6 4-4 3 1-8 6-20 10-24 13-25 10-16 7-10 2-1 2-4 10-13z" fill="#858687"/>
<path transform="translate(421,1029)" d="m0 0 4 2 10 14v2l4 2 2 4-4 1-3 5h-2l-2 5-7 9h-2l-2 4-7 8-12 12-1 2h-2l-2 4-10 10-4 5h-2v2l-19 19-4 5h-2v2l-3 3h-2v2l-10 10h-2l-2 5-5 4-7 8-3 3h-2v2h-2l-2 4-9 9-8 7-4 2v2l-8 6-3 3-9 5-9-1-7-2-14 6-5 3-5 9-4 14-2 2-5-12-2-7v-16l5-10 10-8 10-5 12-3 13-2 19-19 7-8 11-12 9-10 7-8 11-12 7-8 13-14 7-8 14-15 15-16 16-15z" fill="#CF3838"/>
<path transform="translate(456,1071)" d="m0 0 5 3 10 7 9 6 17 8 13 4 13 3 1 2-16 12-11 6-48 32-4 2-39 26-29 20-14 10-17 12-12 9-18 14-6 8-1 7 4 6-1 9-5 10-7 6-9 3-14 2-7-1-9-6v-3l5-1-5-5-1-2h18l7-3 4-4 4-6 1-5-5-10v-2l6 2 1 1 2-6 3-4h2l2-5 10-9 11-9 10-9 15-11 8-6 13-11 14-10 9-8 12-9 3-4 7-4 7-6 5-5 5-4 4-4 2-4-2-1 3-4v-3l2-3v-5l3-7 6-21 2-9z" fill="#9F1919"/>
<path transform="translate(1121,214)" d="m0 0h19l22 1 21 3 14 4 8 4 2 4-5 3-11 2-34 2-58 3-11 1-23 7-39 10-31 9-41 13-31 11-27 11-23 11-21 13h-3l12-12 14-11 16-12 22-14 19-11 17-9 27-12 25-9 26-8 25-6 23-4 15-2z" fill="#5A5A5B"/>
<path transform="translate(687,953)" d="m0 0h2l5 10 1 5v7l1 3 6 3 4 6 2 5 6 4 10 7 7 5 8 4 13 8 10 5 7 6 7 3 1 3 3 1 1 3-1 8-6 7-6 9-4 12v9l2 9 6 17 3 11 3 14 3 9 2 26 1 8-1 11v6l-3 5-2 1-3 5-5-1-9-4-2-8-2-29-9-82-5-25-6-16-6-11-9-10-10-6-10-4-16-4-19-2-26-1-5-2 5-7 8-7 10-10 8-7 7-7 8-7z" fill="#858687"/>
<path transform="translate(700,811)" d="m0 0h8l5 2v3l-2 3-1 10v5l3 7v3h2l2 7h2l1 3 5 5 9 11 4 2 1 2 3 1 3 3h2v2l9 3 8 1 16-12 11-10 11-9 15-13 6-4-2 4-10 9-11 9-10 9-11 9-5 4v13l-4 6-14 12-8 5-25 8-4 5-11 8-13 12-5 4-5 3-9 9-8 7-7 7-8 7-15 15-9 11-5 5-4 6-4 8-3 1-1 4h-2l-2 9h-1v-15l-2-9v-3l3-1 2-4 8-11h2l2-4 4-5 5-4 1-2h2v-2h2v-2l8-7 12-11 3-5 7-7 5-3 3-4h2v-2l5-4h2l1-3 7-6h2v-2h2l2-4 4-1h3l-2-5-1-6-5-2-3-12 6-8 4 2 12 8 8 5 2 1h6l14-12 6-1-4-4-8-6-19-19-9-12-6-10 1-9h-2l-1 6-2-2-4-10-1-7 1 10 1 3v9l-7 6-5 5h-2v8l4 10v2l-4-1-2-7-7 2-3 4-7 1v5l-6-1-7 1-3 1-2 4-5 4h-2l-3 8-1-3 2-14 11-9 11-11 4-2 11-23 7-8 11-9 5-4z" fill="#A23A3A"/>
<path transform="translate(695,820)" d="m0 0 2 1 2 9 3 8 2-4h2l1 3-1 6 10 16 14 15 9 8 5 5 8 6-1 2-10-6-3-3-9-5-4-2-7 3-6 6-5 1-3-1-1 2-3-2-3-1-3-4-7 1-4 2-1 2v8l2 2 4 11 3 5-3 1-5-3-7-3-3 7-4 5-1 2h-2v2l-11 9-9 7-8 8-11 8-8 7-6 3-2 2h-3l-6-1-5-6 2-6h2l1-9-2-4 11-10 17-13 11-8 4-6-1-4v-7l2-5 2-7 5-5 4-2h8l1 1 1-4 7-2 4-5 6-1 2 3v5l4 1-5-12v-6l5-5h2l1-3 6-5v-9l-2-8z" fill="#B71C1C"/>
<path transform="translate(732,484)" d="m0 0h9l-1 10-5 21-4 31-1 8-16-3-19-6-16-8-12-7-10-7-12-8-11-8-1-4 10-5 12-2 5-2 21-1 18-3 9-2 21-3z" fill="#868788"/>
<path transform="translate(599,688)" d="m0 0h14l7 5 1 4h2l2 6-6 14v13l-3 11-4 8-3 8-4 5-6 12-3 4-3-1 1-11 4-29v-11l-1-10-3 3-9 19-13 37-8 18-10 20-16 27-15 27-3 6h-5l3-10 3-5 2-5 5-11 6-14 3-3 2-6 5-8 2-28 5-14 2-7 3-5 4-12 7-19 8-16 2-3h2l2-5 4-4h2l1-3z" fill="#858687"/>
<path transform="translate(817,1346)" d="m0 0h8l15 2 14 3 13 5 2 3-6 7-13 10-18 13-11 8-13 11h-2l-2 4-15-1-10-1-28-1 2-1 2-5 9-8 7-8 12-12 6-8 5-5h2l2-5 4-5h2v-2z" fill="#878889"/>
<path transform="translate(857,575)" d="m0 0 5 1 9 7 2 2 1 11-4 5-2 9-7 4-3 6-3 5 1 5 1 9 2 4h5l2 3-2 5h7l3 6 7-2 1-2 10-2 6-5 7-3h11l12 2 8 4 16 11 5 5 11 9 7 8 2 1v2l4 2 9 11 12 12 5 8 6 5 4 6 9 9 5 6 5 5 7 8 5 5 3 6h11l14 3v1l-24 3-13 1-51 1 5 7 1 5h-8l1-2-3-5-5-5v-2l70-1-6-10-9-8-7-8-5-5-8-10-9-10-4-5-5-5-9-11-4-4v-2h-2v-2l-4-2-7-8-2-1v-2l-4-2-3-3v-2l-5-2v-2l-4-2-5-4-5-3-6-4-8-3h-7l-15 3-5 2-1 3-5 4-6 9-5 2h-5l-3 1-1 3-5-1-9-4-5-7-3-1-1-6-1-3-7-2-3-9-5 1-1-7-2-2v-8l2-7 2-9 4-3h2l2-5 13-10 6-6 2-7-5-6-2-1v-2z" fill="#A2A3A7"/>
<path transform="translate(914,708)" d="m0 0h12l16 8 8 8 11 9 10 12 6 4 6 7 2 1v2l4 2 5 4 3 4v4h-10l-11-1v2l-3-1h2v-2l-6 3-2-4h-11l-5-2-16-3-1-2h-7v-2l-9-2-8-2-2-1-11-5-10-5 1-5 5-10 5-9 4-2 2-4 5-5z" fill="#858687"/>
<path transform="translate(421,1029)" d="m0 0 4 2 5 7-1 2-6 7-17 17h-2l-2 4-16 16-7 8-8 8-3 4h-2l-2 4-15 15-7 8-6 7-8 8h-2l-2 5-3 1v2l-14 14-7 8-11 11-6 7-8 7-7 5-4 1-5-3h-9l-12 4-8 7-7 12-1 9-2-3v-16l5-10 10-8 10-5 12-3 13-2 19-19 7-8 11-12 9-10 7-8 11-12 7-8 13-14 7-8 14-15 15-16 16-15z" fill="#CF6768"/>
<path transform="translate(1223,789)" d="m0 0 1 3-4 16-3 5-6 12v8l3 1 7-3 4-5 9-2 12-3 7-1h8l10 4 10 5 7 3-5 4-5 5-19 9-13 4-11 2h-19l-19-2-8-3-8-6-6-9-1-2-1-9-1-3 20-8 10-5 10-8z" fill="#88898A"/>
<path transform="translate(1121,214)" d="m0 0h19l22 1 21 3 14 4 8 4 2 4-5 3-11 2h-13v-1l12-2 1-2-12-2-27-3h-51l-29 3-24 4-24 6-20 6-25 9-19 8-16 8-11 6-19 11-8 5h-2v2l-2 2 9-2 34-12 3 1-30 11-24 10-21 10-21 13h-3l12-12 14-11 16-12 22-14 19-11 17-9 27-12 25-9 26-8 25-6 23-4 15-2z" fill="#858687"/>
<path transform="translate(1385,583)" d="m0 0 3 2v8l-4 13-8 16-5 6-12 20-10 14-8 10-1 3-8 7-5 5-8 9-8 7-6 7-5 3-10 2-2-1-3-5v-5l13-12 10-9 14-15 9-11 10-13 10-14 15-25 7-14 2 1v2h2l2 3 5-13z" fill="#858687"/>
<path transform="translate(610,1036)" d="m0 0 1 4v2l5 5 7 8 1 3v14l-3 15-5 10-4 5-3 6-5 4-4 6-6 4-7 1-5-5-5-10-3-13-4-1 14-14v-3l5-5 7-8 8-14 2-8h2z" fill="#858586"/>
<path transform="translate(700,811)" d="m0 0h8l5 2v3l-2 3-1 10v5l3 7v3h2l2 7h2l1 3 5 5 9 11 4 2 1 2 3 1 3 3h2v2l9 3 8 1 16-12 11-10 11-9 15-13 6-4-2 4-10 9-11 9-10 9-11 9-5 4-3 3-7 5h-8l-12-2-11-8-13-13-9-12-6-10 1-9h-2l-1 6-2-2-4-10-1-7 1 10 1 3v9l-7 6-5 5h-2v8l4 10v2l-4-1-2-7-7 2-3 4-7 1v5l-6-1-7 1-3 1-2 4-5 4h-2l-3 8-1-3 2-14 11-9 11-11 4-2 11-23 7-8 11-9 5-4z" fill="#CF3838"/>
<path transform="translate(902,589)" d="m0 0 6 2 15 8 12 8v2l5 2 9 9 3 2v2l5 2 8 7 12 11v2h2v2l4 2 3 3v2l4 2 8 7 1 3h3l3 4v2l4 2 18 18 7 6 3 4v2l5 2 3 5 2 1v2l3 1v2h2v2h2l4 5 5 3 9 11 3 6 3 2 13 2 11 3 25 5-3 1 1 3-8 1-10-2-7-2-12-2-8-3-10-1-6-4-4-8-11-12-5-5-1-3-4-2-5-4-7-8-1-3h-2v-2l-3-1-5-6-10-10-6-7-5-5-4-3v-2l-4-2-4-4v-2h-2v-2l-5-2-4-6-2-1v-2l-4-2-9-8v-2l-4-2-6-5-11-9-9-7-5-5-8-5v-2h-2v-2l-4-2-6-5z" fill="#A9AAAD"/>
<path transform="translate(543,1112)" d="m0 0h7l-5 5-18 14-19 14-17 12-20 14-31 21-30 20-44 29-19 13-9 7h-2l-3 14-5 12-8 10-8 6-9 3-12-1v-1l9-1 13-7 9-9 4-11 1-6-3-3 1-5 10-9 12-8 19-13 34-22 11-7 54-36 10-7 5-1 17-12 13-10 28-21z" fill="#CD7A7A"/>
<path transform="translate(874,578)" d="m0 0 1 2 4 2 6 4 8 12 9 13 5 7 8 4 5 3 7 3 22 16 4 4 7 6v2l5 2 3 3v2l4 2 6 5v2h2l3 5 8 7 9 10 7 8 2 1 2 5 7 6 7 8 8 9 4 5 6 5 2 4 5 5 6 9 3 1 20 2 10 2 8 3v1l-10 1-3-2-12-2-15-1-3-2v-2h-2v-3h-2l-6-7v-2l-4-2-5-5-10-12-8-7-3-5v-2h-2l-7-8-6-7-5-5-5-6-5-5-10-11-8-7v-2h-2v-2l-5-2v-2l-4-2-8-6v-2l-4-2-3-2v-2l-9-3-4-4-11-3-9-4-12-6-5-5-4-7-2-15-4-8v-2l-4-2-3-4z" fill="#A1A2A6"/>
<path transform="translate(1366,380)" d="m0 0 5 5 7 10 12 22 7 17 5 22v13l-2 2h-3v7l1 1v17l-1 2v9l-1 6-3-4-1-4h-2l-1 3-4-3-3 11-2 7 3-1 7 2-3 1-2 4-9 2 1 3-3-1 3-12 3-9 3-14 1-14h2l-1-7 1-10v-16l-1-11 1-6-2-1-1-12-1-9-2-1-2-9-8-15-4-5z" fill="#858687"/>
<path transform="translate(752,674)" d="m0 0 3 3 7 14 7 10 4 6 1 4 8 7-2-6-1-5-5-13 1-4 8 16 9 19 5 8v2h2l8 10 10 13 8 9-1 2-12-12-11-14-8-9 1 4 5 8 1 3 4 2 8 8v3l10 9 13 9 6 2 8 8 25 14 22 12 29 13 1 2-8-1-21-8-5-3-10-4-19-10-9-5-9-4-10-8-19-19-8-7-10-10-9-11-10-13-12-19-8-15-7-16z" fill="#878788"/>
<path transform="translate(709,818)" d="m0 0 2 1-1 10v5l3 7v3h2l2 7h2l1 3 5 5 9 11 4 2 1 2 3 1 3 3h2v2l9 3 8 1 16-12 11-10 11-9 15-13 6-4-2 4-10 9-11 9-10 9-11 9-5 4-3 3-7 5h-8l-12-2-11-8-13-13-9-12-6-10 1-7-1-4v-9z" fill="#CC6565"/>
<path transform="translate(477,1083)" d="m0 0 12 3 10 3 21 3 16 1 14-1 15-4 8-1-4 4-15 7-15 4h-18l-18-4-15-6-13-7z" fill="#858687"/>
<path transform="translate(635,896)" d="m0 0 1 4-3 5h-2l-2 4-9 6-28 10-16 8-13 8h-2l-2 4-5 6-2 3v-12l-3-4v-2l12-2 4-1v-2l7-4 10-6 11-6 16-4 13-3 10-5z" fill="#858485"/>
<path transform="translate(1280,672)" d="m0 0 2 2-5 5-8 7-14 12-18 13-18 11-14 8-3 3-2 1-2 4-2 5v8h-4l-1 2-7 1-2-3 1-7 2-3h-2v-2l-2-1 14-7 15-8 4-1 1-2 7-4h2l1-2 5-3h2v-2l9-5 4-4h3v-2l3-1 1-2 7-4 3-3h2v-2l6-4 3-4 4-2 1-2h2z" fill="#6F6F70"/>
<path transform="translate(957,357)" d="m0 0 7 6 4 4 7 11 5 7v2h2l-3 15-3 2-6-16-4-4-3-5-12-11-1-6z" fill="#A2A3A7"/>
<path transform="translate(948,771)" d="m0 0 9 1 12 5 4 4-1 6 7-1 6 2-1 2v6l-4 1-12-4-3-7 3-1h-7l-4-2h-3l-1 2-3-1v-3l-4 1-3-2v-7z" fill="#A2A3A7"/>
<path transform="translate(700,811)" d="m0 0h8l5 2v3l-6 5-1 2v11h-2l-1 6-2-2-4-10-1-10h-3l-2 4-11 9-4 5-5 13-6 11-4 2-2-3 5-3 11-23 7-8 11-9 5-4z" fill="#A43C3C"/>
<path transform="translate(814,769)" d="m0 0h2l3 4v2h2l6 8 5 5 7 6 11 6-2 1h-9l-7 4-3 2 2-4 2-2-3-4v-3l-1-2-6-2-7-6-4-7-1-5z" fill="#A14445"/>
<path transform="translate(1411,489)" d="m0 0h1v21l-1 17-4 23-4 14-2-3-1-6 6-29 2-20 1-16z" fill="#858687"/>
<path transform="translate(795,661)" d="m0 0 2 1 5 12 8 16 9 14 10 13v4l-4-1-10-12-9-16-7-16-4-12z" fill="#858687"/>
<path transform="translate(1199,732)" d="m0 0 3 2h-2l-2 4-2 5v8h-4l-1 2-7 1-2-3 1-7 2-4 4-2z" fill="#A4A5A8"/>
<path transform="translate(822,836)" d="m0 0v3l-11 10-11 9-10 9-11 9-5 4-3 3-7 5h-8l-5-2 1-3 12 1 16-12 11-10 11-9 15-13z" fill="#878889"/>
<path transform="translate(979,345)" d="m0 0 2 1v2h2l3 4 1 5-2 15-3-4-4-8-5-7-2-1 2-4z" fill="#A2A3A7"/>
<path transform="translate(1049,773)" d="m0 0h12v1l-22 2-51 1 5 7 1 5h-8l1-2-3-5-5-5v-2l58-1z" fill="#858687"/>
<path transform="translate(745,648)" d="m0 0 4 2 6 17 3 6 2 1v2l5 2 3 9-3 1-6-5-8-16-6-16z" fill="#858687"/>
<path transform="translate(693,818)" d="m0 0 2 1-4 6-10 7-3 4-3 11h-2l-1 6-6 11-3 1h-6l1-5 5 1 6-10 5-12 3-6 12-11z" fill="#A33737"/>
<path transform="translate(1384,540)" d="m0 0 4 2-1 2-4 1-6 11h-6l-4 3 1-5 1-2-2-1 3-6 3 1 1-3 7 1z" fill="#A3A4A8"/>
<path transform="translate(655,866)" d="m0 0h2l-2 6-3 2-1 5h-2l-2 4-5 4h-2l-3 8-1-3 3-13 9-7z" fill="#A33A3A"/>
<path transform="translate(585,927)" d="m0 0 2 1-9 8-10 7-12 8-3 4 1-6 7-8 15-9z" fill="#A23636"/>
<path transform="translate(773,883)" d="m0 0h1v10l-4 6-4 2-6 2-14 10-4-1 10-9 5-4 5-2 8-1z" fill="#C76565"/>
<path transform="translate(965,786)" d="m0 0h14l6 2-1 2v6l-4 1-12-4z" fill="#858687"/>
<path transform="translate(696,813)" d="m0 0 2 1-7 8-11 9-4 5-5 13-6 11-4 2-2-3 5-3 11-23 7-8 11-9z" fill="#C27475"/>
<path transform="translate(1219,718)" d="m0 0h2v3l-16 9-11 6-5 3h-4v2h-2v-2l-2-1 14-7 15-8 4-1 1-2z" fill="#6C6C6D"/>
<path transform="translate(693,824)" d="m0 0 1 4-16 16v12l-5 2 2-16 4-6 11-9z" fill="#CF6262"/>
<path transform="translate(831,788)" d="m0 0 8 6 11 6-2 1h-9l-7 4-3 2 2-4 2-2-3-4v-3l-2-4z" fill="#858687"/>
<path transform="translate(1355,733)" d="m0 0 4 1-2 5-18 12h-3l1-4 6-2 1-3h2l1-4 5-4z" fill="#9B9C9D"/>
<path transform="translate(874,742)" d="m0 0 12 4 3 3-4 3 3 4-5-1-6-3-4-4z" fill="#A2A3A7"/>
<path transform="translate(816,769)" d="m0 0 7 6 15 15 11 8-3 1-11-7-6-7-5-4-3-4v-2h-2l-3-4z" fill="#F2F2F3"/>
<path transform="translate(771,773)" d="m0 0 9 1 4 1-1 5-2 1h-10l-2-2 1-5z" fill="#858687"/>
<path transform="translate(822,836)" d="m0 0v3l-11 10-11 9-10 9-7 6-2-1 10-10 11-9 15-13z" fill="#858687"/>
<path transform="translate(866,1628)" d="m0 0h5l-3 3-16 4-19 3h-8l4-2 12-2 22-5z" fill="#858687"/>
<path transform="translate(1167,748)" d="m0 0 3 2v4l3 7-7 1-5-7v-4z" fill="#A3A4A8"/>
<path transform="translate(693,818)" d="m0 0 2 1-4 6-10 7-3 4-3 11-2-2 2-9 7-8 10-8z" fill="#AA3737"/>
<path transform="translate(1389,486)" d="m0 0 2 1v14h-3-3l1-10 1-4z" fill="#59595A"/>
<path transform="translate(709,818)" d="m0 0 2 1-1 10-1 5h-3l-1-2v-9z" fill="#9D9EA0"/>
<path transform="translate(805,744)" d="m0 0 5 5 8 10 7 8-1 2-12-12-8-10z" fill="#858687"/>
<path transform="translate(1280,672)" d="m0 0 2 2-5 5-8 7-9 8-3-1 5-5h2v-2l6-4 3-4 4-2 1-2h2z" fill="#88898B"/>
<path transform="translate(673,840)" d="m0 0 1 2-8 16-3 4-4-2 6-6 7-13z" fill="#C86B6C"/>
<path transform="translate(820,1637)" d="m0 0 5 1v1l-21 2h-10l-1-2 5-1h10z" fill="#858687"/>
<path transform="translate(695,818)" d="m0 0 1 2-1 6h-3l-11 10-4 2 2-4 5-5 8-6z" fill="#D03838"/>
<path transform="translate(1382,522)" d="m0 0 7 1 1 2h-3l-2 4-8 1 2-7z" fill="#A9AAAE"/>
<path transform="translate(657,861)" d="m0 0 1 2-1 3-11 9-5 4h-2l-1 4v-5l11-9z" fill="#BC7677"/>
<path transform="translate(1256,714)" d="m0 0 4 2-1 4-3 6h-2l1-4 1-2-4-2z" fill="#A2A3A7"/>
<path transform="translate(789,1624)" d="m0 0m-1 1m-1 1m-1 1m-1 1m-2 1 2 1-2 3-1 6h-5v-4z" fill="#F2F2F3"/>
<path transform="translate(1227,745)" d="m0 0 6 3 10 1-4 3-3-1-1 2-7-4z" fill="#A2A3A7"/>
<path transform="translate(853,731)" d="m0 0 6 1 3 3-2 3-5-1v-2l-2-1z" fill="#A4A5A9"/>
<path transform="translate(1190,733)" d="m0 0 3 3-4 3h-4v2h-2v-2l-2-1z" fill="#757677"/>
<path transform="translate(696,813)" d="m0 0 2 1-7 8-7 6-2-1 8-9z" fill="#C86B6B"/>
<path transform="translate(1380,516)" d="m0 0 1 3-3 12h-2l1 3-3-1 3-12z" fill="#8A8B8D"/>
<path transform="translate(796,734)" d="m0 0 3 1 6 7v3l-4-2-5-6z" fill="#8E6F70"/>
<path transform="translate(1256,693)" d="m0 0h2l-2 4-5 4-6 1v-2h3v-2l3-1 1-2z" fill="#767778"/>
<path transform="translate(1219,749)" d="m0 0 5 2 5 3v2l-8-1v-2l-3-3z" fill="#A2A3A7"/>
<path transform="translate(784,722)" d="m0 0 5 2 6 7-1 2-4-4-4-2z" fill="#A33737"/>
<path transform="translate(1408,552)" d="m0 0 2 4-1 8-2-2-3 4 1-6z" fill="#A3A4A8"/>
<path transform="translate(1407,549)" d="m0 0 2 1-2 8-2 5h-2l3-13z" fill="#F2F2F3"/>
<path transform="translate(668,867)" d="m0 0 6 1-2 4-4 1-2-3z" fill="#A33737"/>
<path transform="translate(1246,701)" d="m0 0 4 1-9 6h-3l1-3z" fill="#6C6C6D"/>
<path transform="translate(813,820)" d="m0 0h4l1 2v9h-3v-7z" fill="#858687"/>
<path transform="translate(1227,713)" d="m0 0 4 2-8 5h-2l-1-3 4-1 1-2z" fill="#707172"/>
</svg>
